<?xml version="1.0" encoding="utf-8"?>
<!-- Generator: Adobe Illustrator 16.0.0, SVG Export Plug-In . SVG Version: 6.00 Build 0)  -->
<!DOCTYPE svg PUBLIC "-//W3C//DTD SVG 1.1//EN" "http://www.w3.org/Graphics/SVG/1.1/DTD/svg11.dtd">
<svg version="1.1" xmlns="http://www.w3.org/2000/svg" xmlns:xlink="http://www.w3.org/1999/xlink" x="0px" y="0px" width="40px"
	 height="40px" viewBox="0 0 40 40" style="enable-background:new 0 0 40 40;" xml:space="preserve">
<style type="text/css">
<![CDATA[
	.st0{fill:#AB47AC;}
	.st1{fill:#FFFFFF;stroke:#000000;stroke-miterlimit:10;}
	.st2{fill:#E13138;}
	.st3{fill:#13C1F3;}
	.st4{fill:#1465D2;}
	.st5{fill:#17A3EB;}
	.st6{fill:#1D74A6;}
	.st7{fill:#594721;}
	.st8{fill:#8DC2F8;}
	.st9{fill:#F16529;}
	.st10{fill:#2592C3;}
	.st11{fill:#C2DCE9;}
	.st12{fill:#FAA33D;}
	.st13{fill:#2DA8C7;}
	.st14{fill:#C94137;}
	.st15{fill:#2F3146;}
	.st16{fill:#FDDA3E;}
	.st17{fill:#FF7E30;}
	.st18{fill:#FFB650;}
	.st19{fill:#FFFFFF;}
	.st20{fill:#CB90FF;}
	.st21{fill:#33A9DC;}
	.st22{fill:#6A8A7B;}
	.st23{fill:#36A3D0;}
	.st24{fill:#393476;}
	.st25{fill:#393568;}
	.st26{fill:#393687;}
	.st27{fill-rule:evenodd;clip-rule:evenodd;fill:#FFFFFF;}
	.st28{fill:#D25685;}
	.st29{fill:#D97C2B;}
]]>
</style>
<g id="_x31_">
	<rect x="-506.7" y="-93.5" class="st1" width="800" height="800"/>
	<circle class="st25" cx="20" cy="20" r="20"/>
	<g>
		<path class="st20" d="M11.1,23.1l-1.5,5H6.2l5.7-17.7h4.1l5.8,17.7h-3.5l-1.6-5H11.1z M16.2,20.6l-1.4-4.4
			c-0.3-1.1-0.6-2.3-0.9-3.3h-0.1c-0.3,1-0.5,2.3-0.8,3.3l-1.4,4.4H16.2z"/>
		<path class="st20" d="M26.1,22.6c0.1,2.3,1.9,3.3,3.9,3.3c1.5,0,2.6-0.2,3.6-0.6l0.5,2.2c-1.1,0.4-2.6,0.8-4.5,0.8
			c-4.2,0-6.6-2.6-6.6-6.5c0-3.6,2.2-6.9,6.3-6.9c4.2,0,5.5,3.4,5.5,6.2c0,0.6-0.1,1.1-0.1,1.4H26.1z M31.7,20.3
			c0-1.2-0.5-3.1-2.7-3.1c-2,0-2.8,1.8-3,3.1H31.7z"/>
	</g>
</g>
<g id="Layer_1">
</g>
</svg>
