<?xml version="1.0" encoding="utf-8"?>
<!-- Generator: Adobe Illustrator 16.0.0, SVG Export Plug-In . SVG Version: 6.00 Build 0)  -->
<!DOCTYPE svg PUBLIC "-//W3C//DTD SVG 1.1//EN" "http://www.w3.org/Graphics/SVG/1.1/DTD/svg11.dtd">
<svg version="1.1" xmlns="http://www.w3.org/2000/svg" xmlns:xlink="http://www.w3.org/1999/xlink" x="0px" y="0px" width="40px"
	 height="40.3px" viewBox="0 0 40 40.3" style="enable-background:new 0 0 40 40.3;" xml:space="preserve">
<style type="text/css">
<![CDATA[
	.st0{fill:#AB47AC;}
	.st1{fill:#FFFFFF;stroke:#000000;stroke-miterlimit:10;}
	.st2{fill:#E13138;}
	.st3{fill:#13C1F3;}
	.st4{fill:#1465D2;}
	.st5{fill:#17A3EB;}
	.st6{fill:#1D74A6;}
	.st7{fill:#5277C5;}
	.st8{fill:#2592C3;}
	.st9{fill:#FAA33D;}
	.st10{fill:#2DA8C7;}
	.st11{fill:#C94137;}
	.st12{fill:#FF7E30;}
	.st13{fill:#FFFFFF;}
	.st14{fill:#6A8A7B;}
	.st15{fill:#36A3D0;}
	.st16{fill-rule:evenodd;clip-rule:evenodd;fill:#FFFFFF;}
	.st17{fill:#D25685;}
	.st18{fill:#D97C2B;}
]]>
</style>
<g id="_x31_">
	<rect x="-133.2" y="-192.6" class="st1" width="800" height="800"/>
	<circle class="st4" cx="20" cy="20.2" r="20"/>
	<path class="st13" d="M17.6,19.4c0,0,2.4-0.4,2.4-3.3c0-2.9-2-4.2-4.4-4.2H7.5v16.6l8.2,0c0,0,4.9-0.2,4.9-5.2
		C20.6,23.4,20.7,19.4,17.6,19.4L17.6,19.4z M11.1,14.9h4.5c0,0,1.1,0.1,1.1,1.8c0,1.7-0.7,1.8-1.4,1.8h-4.2V14.9L11.1,14.9z
		 M15.3,25.6h-4.3v-4.8h4.5c0,0,1.7,0.1,1.7,2.4C17.3,25.1,16,25.5,15.3,25.6L15.3,25.6z M27.2,16.1c-6,0-6,6.2-6,6.2
		s-0.4,6.3,6,6.3c0,0,5.3,0,5.3-4.2h-2.8c0,0,0.1,1.6-2.5,1.6c0,0-2.8,0.2-2.8-2.8l8.1,0C32.5,23.2,33.4,16.1,27.2,16.1L27.2,16.1z
		 M29.5,20.8h-5.1c0,0,0.3-2.4,2.7-2.4C29.5,18.4,29.5,20.8,29.5,20.8L29.5,20.8z M30.1,13.1h-6.6v1.8h6.6V13.1L30.1,13.1z"/>
</g>
<g id="Layer_1">
</g>
</svg>
