<?xml version="1.0" encoding="utf-8"?>
<!-- Generator: Adobe Illustrator 16.0.0, SVG Export Plug-In . SVG Version: 6.00 Build 0)  -->
<!DOCTYPE svg PUBLIC "-//W3C//DTD SVG 1.1//EN" "http://www.w3.org/Graphics/SVG/1.1/DTD/svg11.dtd">
<svg version="1.1" id="Layer_1" xmlns="http://www.w3.org/2000/svg" xmlns:xlink="http://www.w3.org/1999/xlink" x="0px" y="0px"
	 width="28.8px" height="36.2px" viewBox="-233.2 -27.4 28.8 36.2" style="enable-background:new -233.2 -27.4 28.8 36.2;"
	 xml:space="preserve">
<style type="text/css">
<![CDATA[
	.st0{fill:#FFFFFF;stroke:#000000;stroke-miterlimit:10;}
	.st1{fill:#F16529;}
	.st2{fill:#FFFFFF;}
	.st3{fill:#33A9DC;}
]]>
</style>
<rect x="-747" y="-101" class="st0" width="800" height="800"/>
<g>
	<g>
		<path class="st2" d="M-226.4-13.3L-225,2l6.1,1.7l6.1-1.7l1.4-15.3H-226.4z M-214.4-8.3h-7.2l0.2,1.9h6.8l-0.5,5.8l-3.8,1.1l0,0
			l0,0l-3.8-1.1l-0.2-3h1.9l0.1,1.5l2.1,0.6l2.1-0.6l0.2-2.4h-6.5l-0.6-5.6h9.4L-214.4-8.3z"/>
	</g>
	<g>
		<path class="st2" d="M-228-22.2v2.4h2.5v-2.4h1.1v5.9h-1.1v-2.6h-2.5v2.6h-1.1v-5.9H-228z"/>
		<path class="st2" d="M-222.1-21.3h-1.7v-0.9h4.5v0.9h-1.7v5h-1.1V-21.3z"/>
		<path class="st2" d="M-213.6-18.7c0-0.8-0.1-1.7-0.1-2.5l0,0c-0.2,0.7-0.4,1.5-0.7,2.3l-0.9,2.6h-0.8l-0.8-2.6
			c-0.2-0.8-0.4-1.6-0.6-2.3l0,0c0,0.8-0.1,1.7-0.1,2.5l-0.1,2.4h-1l0.4-5.9h1.4l0.8,2.4c0.2,0.7,0.4,1.4,0.5,2.1l0,0
			c0.2-0.6,0.4-1.4,0.6-2.1l0.8-2.4h1.4l0.3,5.9h-1.1V-18.7z"/>
		<path class="st2" d="M-211.4-22.2h1.1v5h2.4v0.9h-3.5V-22.2z"/>
	</g>
</g>
<path class="st3" d="M-204.4,7.9c0,0.6-0.4,1-1,1h-26.8c-0.6,0-1-0.4-1-1v-34.3c0-0.6,0.4-1,1-1h26.8c0.6,0,1,0.4,1,1V7.9z"/>
<g>
	<path class="st2" d="M-221.8-16.2c-0.3,0.1-0.8,0.3-1.5,0.3c-1.9,0-3-1.2-3-3c0-1.9,1.4-3.1,3.2-3.1c0.7,0,1.2,0.1,1.4,0.3
		l-0.3,0.8c-0.3-0.1-0.7-0.2-1.2-0.2c-1.2,0-2.1,0.8-2.1,2.2c0,1.3,0.8,2.1,2.1,2.1c0.4,0,0.9-0.1,1.2-0.2L-221.8-16.2z"/>
	<path class="st2" d="M-220.9-17.2c0.4,0.2,0.9,0.4,1.4,0.4c0.7,0,1.1-0.3,1.1-0.8c0-0.4-0.3-0.7-1.1-1c-1-0.4-1.6-0.9-1.6-1.7
		c0-1,0.8-1.7,2.1-1.7c0.6,0,1.1,0.1,1.4,0.3l-0.2,0.8c-0.2-0.1-0.6-0.3-1.2-0.3c-0.7,0-1,0.4-1,0.7c0,0.5,0.3,0.7,1.1,1
		c1,0.4,1.5,0.9,1.5,1.8c0,0.9-0.7,1.8-2.2,1.8c-0.6,0-1.3-0.2-1.6-0.4L-220.9-17.2z"/>
	<path class="st2" d="M-216.3-17.2c0.4,0.2,0.9,0.4,1.4,0.4c0.7,0,1.1-0.3,1.1-0.8c0-0.4-0.3-0.7-1.1-1c-1-0.4-1.6-0.9-1.6-1.7
		c0-1,0.8-1.7,2.1-1.7c0.6,0,1.1,0.1,1.4,0.3l-0.2,0.8c-0.2-0.1-0.6-0.3-1.2-0.3c-0.7,0-1,0.4-1,0.7c0,0.5,0.3,0.7,1.1,1
		c1,0.4,1.5,0.9,1.5,1.8c0,0.9-0.7,1.8-2.2,1.8c-0.6,0-1.3-0.2-1.6-0.4L-216.3-17.2z"/>
</g>
<g>
	<polygon class="st2" points="-225.6,-13.1 -226.2,-10 -213.7,-10 -214.1,-8 -226.6,-8 -227.2,-4.9 -214.7,-4.9 -215.4,-1.4 
		-220.5,0.3 -224.8,-1.4 -224.5,-2.9 -227.6,-2.9 -228.4,0.8 -221.1,3.6 -212.8,0.8 -210,-13.1 	"/>
</g>
</svg>
