<?xml version="1.0" encoding="utf-8"?>
<!-- Generator: Adobe Illustrator 16.0.0, SVG Export Plug-In . SVG Version: 6.00 Build 0)  -->
<!DOCTYPE svg PUBLIC "-//W3C//DTD SVG 1.1//EN" "http://www.w3.org/Graphics/SVG/1.1/DTD/svg11.dtd">
<svg version="1.1" xmlns="http://www.w3.org/2000/svg" xmlns:xlink="http://www.w3.org/1999/xlink" x="0px" y="0px" width="40.3px"
	 height="39.3px" viewBox="0 0 40.3 39.3" style="enable-background:new 0 0 40.3 39.3;" xml:space="preserve">
<style type="text/css">
<![CDATA[
	.st0{fill:#AB47AC;}
	.st1{fill:#FFFFFF;stroke:#000000;stroke-miterlimit:10;}
	.st2{fill:#E13138;}
	.st3{fill:#13C1F3;}
	.st4{fill:#1465D2;}
	.st5{fill:#17A3EB;}
	.st6{fill:#1D74A6;}
	.st7{fill:#5277C5;}
	.st8{fill:#2592C3;}
	.st9{fill:#FAA33D;}
	.st10{fill:#2DA8C7;}
	.st11{fill:#C94137;}
	.st12{fill:#FF7E30;}
	.st13{fill:#FFFFFF;}
	.st14{fill:#6A8A7B;}
	.st15{fill:#36A3D0;}
	.st16{fill-rule:evenodd;clip-rule:evenodd;fill:#FFFFFF;}
	.st17{fill:#D25685;}
	.st18{fill:#D97C2B;}
]]>
</style>
<g id="_x31_">
	<rect x="-79.2" y="-289.5" class="st1" width="800" height="800"/>
	<g>
		<path d="M37.6,10c-1.8-3.1-4.2-5.5-7.3-7.3C27.1,0.9,23.8,0,20.1,0s-7,0.9-10.1,2.7S4.5,6.9,2.7,10C0.9,13.1,0,16.5,0,20.1
			c0,4.4,1.3,8.3,3.8,11.8c2.6,3.5,5.9,5.9,9.9,7.3c0.5,0.1,0.8,0,1-0.2c0.2-0.2,0.3-0.5,0.3-0.8c0-0.1,0-0.5,0-1.4
			c0-0.9,0-1.7,0-2.3l-0.6,0.1c-0.4,0.1-0.9,0.1-1.5,0.1c-0.6,0-1.2-0.1-1.8-0.2c-0.6-0.1-1.2-0.4-1.8-0.8c-0.5-0.4-0.9-0.9-1.2-1.6
			l-0.3-0.6c-0.2-0.4-0.4-0.8-0.8-1.3c-0.4-0.5-0.8-0.8-1.1-1l-0.2-0.1c-0.1-0.1-0.2-0.2-0.3-0.3c-0.1-0.1-0.2-0.2-0.2-0.4
			c-0.1-0.1,0-0.2,0.1-0.3C5.6,28,5.9,28,6.2,28L6.8,28c0.4,0.1,0.8,0.3,1.3,0.6C8.6,29,9,29.5,9.3,30c0.4,0.7,0.9,1.3,1.5,1.6
			c0.6,0.4,1.1,0.6,1.7,0.6c0.6,0,1.1,0,1.5-0.1c0.4-0.1,0.8-0.2,1.2-0.4c0.2-1.2,0.6-2.1,1.3-2.7c-1-0.1-1.9-0.3-2.7-0.5
			c-0.8-0.2-1.6-0.6-2.5-1c-0.8-0.5-1.6-1.1-2.1-1.8c-0.6-0.7-1-1.6-1.4-2.8c-0.4-1.1-0.5-2.4-0.5-3.9c0-2.1,0.7-3.9,2.1-5.4
			c-0.6-1.6-0.6-3.4,0.2-5.3c0.5-0.2,1.3,0,2.3,0.4c1,0.4,1.7,0.7,2.2,1c0.5,0.3,0.8,0.5,1.1,0.7c1.6-0.5,3.3-0.7,5-0.7
			c1.7,0,3.4,0.2,5,0.7l1-0.6c0.7-0.4,1.5-0.8,2.4-1.2c0.9-0.3,1.6-0.4,2.1-0.3c0.8,2,0.9,3.8,0.2,5.3c1.4,1.5,2.1,3.3,2.1,5.4
			c0,1.5-0.2,2.8-0.5,3.9c-0.4,1.1-0.8,2.1-1.4,2.8c-0.6,0.7-1.3,1.3-2.1,1.7c-0.8,0.5-1.7,0.8-2.5,1c-0.8,0.2-1.7,0.4-2.7,0.5
			c0.9,0.8,1.4,2,1.4,3.7v5.5c0,0.3,0.1,0.6,0.3,0.8c0.2,0.2,0.6,0.3,1,0.2c4.1-1.3,7.4-3.8,9.9-7.3c2.6-3.5,3.8-7.4,3.8-11.8
			C40.3,16.5,39.4,13.1,37.6,10z"/>
	</g>
</g>
<g id="Layer_1">
</g>
</svg>
