<?xml version="1.0" encoding="utf-8"?>
<!-- Generator: Adobe Illustrator 16.0.0, SVG Export Plug-In . SVG Version: 6.00 Build 0)  -->
<!DOCTYPE svg PUBLIC "-//W3C//DTD SVG 1.1//EN" "http://www.w3.org/Graphics/SVG/1.1/DTD/svg11.dtd">
<svg version="1.1" id="Layer_1" xmlns="http://www.w3.org/2000/svg" xmlns:xlink="http://www.w3.org/1999/xlink" x="0px" y="0px"
	 width="28.8px" height="36.4px" viewBox="-115.7 -35.8 28.8 36.4" style="enable-background:new -115.7 -35.8 28.8 36.4;"
	 xml:space="preserve">
<style type="text/css">
<![CDATA[
	.st0{fill:#FFFFFF;stroke:#000000;stroke-miterlimit:10;}
	.st1{fill:#F16529;}
	.st2{fill:#FFFFFF;}
]]>
</style>
<rect x="-789" y="-131" class="st0" width="800" height="800"/>
<path class="st1" d="M-86.9-0.5c0,0.6-0.4,1-1,1h-26.8c-0.6,0-1-0.4-1-1v-34.3c0-0.6,0.4-1,1-1h26.8c0.6,0,1,0.4,1,1V-0.5z"/>
<g>
	<g>
		<path class="st2" d="M-109.2-21.4l1.4,15.3l6.1,1.7l6.1-1.7l1.4-15.3H-109.2z M-97.2-16.4h-7.2l0.2,1.9h6.8l-0.5,5.8l-3.8,1.1l0,0
			l0,0l-3.8-1.1l-0.2-3h1.9l0.1,1.5l2.1,0.6l2.1-0.6l0.2-2.4h-6.5l-0.6-5.6h9.4L-97.2-16.4z"/>
	</g>
	<g>
		<path class="st2" d="M-110.8-30.3v2.4h2.5v-2.4h1.1v5.9h-1.1V-27h-2.5v2.6h-1.1v-5.9H-110.8z"/>
		<path class="st2" d="M-104.9-29.4h-1.7v-0.9h4.5v0.9h-1.7v5h-1.1V-29.4z"/>
		<path class="st2" d="M-96.4-26.8c0-0.8-0.1-1.7-0.1-2.5l0,0c-0.2,0.7-0.4,1.5-0.7,2.3l-0.9,2.6h-0.8l-0.8-2.6
			c-0.2-0.8-0.4-1.6-0.6-2.3l0,0c0,0.8-0.1,1.7-0.1,2.5l-0.1,2.4h-1l0.4-5.9h1.4l0.8,2.4c0.2,0.7,0.4,1.4,0.5,2.1l0,0
			c0.2-0.6,0.4-1.4,0.6-2.1l0.8-2.4h1.4l0.3,5.9h-1.1V-26.8z"/>
		<path class="st2" d="M-94.2-30.3h1.1v5h2.4v0.9h-3.5V-30.3z"/>
	</g>
</g>
</svg>
