<?xml version="1.0" encoding="utf-8"?>
<!-- Generator: Adobe Illustrator 16.0.0, SVG Export Plug-In . SVG Version: 6.00 Build 0)  -->
<!DOCTYPE svg PUBLIC "-//W3C//DTD SVG 1.1//EN" "http://www.w3.org/Graphics/SVG/1.1/DTD/svg11.dtd">
<svg version="1.1" xmlns="http://www.w3.org/2000/svg" xmlns:xlink="http://www.w3.org/1999/xlink" x="0px" y="0px" width="40px"
	 height="40px" viewBox="0 0 40 40" style="enable-background:new 0 0 40 40;" xml:space="preserve">
<style type="text/css">
<![CDATA[
	.st0{fill:#AB47AC;}
	.st1{fill:#FFFFFF;stroke:#000000;stroke-miterlimit:10;}
	.st2{fill:#E13138;}
	.st3{fill:#13C1F3;}
	.st4{fill:#1465D2;}
	.st5{fill:#17A3EB;}
	.st6{fill:#1D74A6;}
	.st7{fill:#594721;}
	.st8{fill:#8DC2F8;}
	.st9{fill:#F16529;}
	.st10{fill:#2592C3;}
	.st11{fill:#C2DCE9;}
	.st12{fill:#FAA33D;}
	.st13{fill:#2DA8C7;}
	.st14{fill:#C94137;}
	.st15{fill:#2F3146;}
	.st16{fill:#FDDA3E;}
	.st17{fill:#FF7E30;}
	.st18{fill:#FFB650;}
	.st19{fill:#FFFFFF;}
	.st20{fill:#CB90FF;}
	.st21{fill:#33A9DC;}
	.st22{fill:#6A8A7B;}
	.st23{fill:#36A3D0;}
	.st24{fill:#393476;}
	.st25{fill:#393568;}
	.st26{fill:#393687;}
	.st27{fill-rule:evenodd;clip-rule:evenodd;fill:#FFFFFF;}
	.st28{fill:#D25685;}
	.st29{fill:#D97C2B;}
]]>
</style>
<g id="_x31_">
	<rect x="-666.9" y="-93.5" class="st1" width="800" height="800"/>
	<circle class="st9" cx="20" cy="20" r="20"/>
	<g>
		<path class="st19" d="M12.5,16.8l1.4,15.3l6.1,1.7l6.1-1.7l1.4-15.3H12.5z M24.5,21.8h-7.2l0.2,1.9h6.8l-0.5,5.8L20,30.6v0h0
			l-3.8-1.1l-0.2-3h1.9l0.1,1.5l2.1,0.6l2.1-0.6l0.2-2.4h-6.5L15.3,20h9.4L24.5,21.8z"/>
	</g>
	<g>
		<path class="st19" d="M10.9,7.9v2.4h2.5V7.9h1.1v5.9h-1.1v-2.6h-2.5v2.6H9.8V7.9H10.9z"/>
		<path class="st19" d="M16.8,8.8h-1.7V7.9h4.5v0.9h-1.7v5h-1.1V8.8z"/>
		<path class="st19" d="M25.3,11.4c0-0.8-0.1-1.7-0.1-2.5h0c-0.2,0.7-0.4,1.5-0.7,2.3l-0.9,2.6h-0.8L22,11.2
			c-0.2-0.8-0.4-1.6-0.6-2.3h0c0,0.8-0.1,1.7-0.1,2.5l-0.1,2.4h-1l0.4-5.9h1.4l0.8,2.4c0.2,0.7,0.4,1.4,0.5,2.1h0
			c0.2-0.6,0.4-1.4,0.6-2.1l0.8-2.4h1.4l0.3,5.9h-1.1L25.3,11.4z"/>
		<path class="st19" d="M27.5,7.9h1.1v5H31v0.9h-3.5V7.9z"/>
	</g>
</g>
<g id="Layer_1">
</g>
</svg>
