<?xml version="1.0" encoding="utf-8"?>
<!-- Generator: Adobe Illustrator 16.0.0, SVG Export Plug-In . SVG Version: 6.00 Build 0)  -->
<!DOCTYPE svg PUBLIC "-//W3C//DTD SVG 1.1//EN" "http://www.w3.org/Graphics/SVG/1.1/DTD/svg11.dtd">
<svg version="1.1" xmlns="http://www.w3.org/2000/svg" xmlns:xlink="http://www.w3.org/1999/xlink" x="0px" y="0px" width="40px"
	 height="40px" viewBox="0 0 40 40" style="enable-background:new 0 0 40 40;" xml:space="preserve">
<style type="text/css">
<![CDATA[
	.st0{fill:#AB47AC;}
	.st1{fill:#FFFFFF;stroke:#000000;stroke-miterlimit:10;}
	.st2{fill:#E13138;}
	.st3{fill:#13C1F3;}
	.st4{fill:#1465D2;}
	.st5{fill:#17A3EB;}
	.st6{fill:#1D74A6;}
	.st7{fill:#5277C5;}
	.st8{fill:#2592C3;}
	.st9{fill:#FAA33D;}
	.st10{fill:#2DA8C7;}
	.st11{fill:#C94137;}
	.st12{fill:#FF7E30;}
	.st13{fill:#FFFFFF;}
	.st14{fill:#6A8A7B;}
	.st15{fill:#36A3D0;}
	.st16{fill-rule:evenodd;clip-rule:evenodd;fill:#FFFFFF;}
	.st17{fill:#D25685;}
	.st18{fill:#D97C2B;}
]]>
</style>
<g id="_x31_">
	<rect x="-185.5" y="-143.1" class="st1" width="800" height="800"/>
	<circle class="st6" cx="20" cy="20" r="20"/>
	<path class="st13" d="M12.5,14.4c-1.4,0-2.4-0.9-2.4-2.1c0-1.2,0.9-2.1,2.4-2.1s2.3,0.9,2.4,2.1C14.9,13.5,14,14.4,12.5,14.4
		L12.5,14.4z M14.4,29.9h-3.8V16.3h3.8V29.9L14.4,29.9z M26.1,29.9V22c0-1.7-1.1-2.9-2.6-2.9c-1.2,0-2.1,0.8-2.4,1.6
		C21,20.9,21,21.3,21,21.7v8.2h-3.8V16.3h3.4l0.3,1.5c0.6-0.9,2.1-2,4.4-2c2.8,0,4.7,1.6,4.7,5.6v8.5H26.1L26.1,29.9z"/>
</g>
<g id="Layer_1">
</g>
</svg>
