<?xml version="1.0" encoding="utf-8"?>
<!-- Generator: Adobe Illustrator 16.0.0, SVG Export Plug-In . SVG Version: 6.00 Build 0)  -->
<!DOCTYPE svg PUBLIC "-//W3C//DTD SVG 1.1//EN" "http://www.w3.org/Graphics/SVG/1.1/DTD/svg11.dtd">
<svg version="1.1" xmlns="http://www.w3.org/2000/svg" xmlns:xlink="http://www.w3.org/1999/xlink" x="0px" y="0px" width="40px"
	 height="40px" viewBox="0 0 40 40" style="enable-background:new 0 0 40 40;" xml:space="preserve">
<style type="text/css">
<![CDATA[
	.st0{fill:#AB47AC;}
	.st1{fill:#FFFFFF;stroke:#000000;stroke-miterlimit:10;}
	.st2{fill:#E13138;}
	.st3{fill:#13C1F3;}
	.st4{fill:#1465D2;}
	.st5{fill:#17A3EB;}
	.st6{fill:#1D74A6;}
	.st7{fill:#594721;}
	.st8{fill:#8DC2F8;}
	.st9{fill:#F16529;}
	.st10{fill:#2592C3;}
	.st11{fill:#C2DCE9;}
	.st12{fill:#FAA33D;}
	.st13{fill:#2DA8C7;}
	.st14{fill:#C94137;}
	.st15{fill:#2F3146;}
	.st16{fill:#FDDA3E;}
	.st17{fill:#FF7E30;}
	.st18{fill:#FFB650;}
	.st19{fill:#FFFFFF;}
	.st20{fill:#CB90FF;}
	.st21{fill:#33A9DC;}
	.st22{fill:#6A8A7B;}
	.st23{fill:#36A3D0;}
	.st24{fill:#393476;}
	.st25{fill:#393568;}
	.st26{fill:#393687;}
	.st27{fill-rule:evenodd;clip-rule:evenodd;fill:#FFFFFF;}
	.st28{fill:#D25685;}
	.st29{fill:#D97C2B;}
]]>
</style>
<g id="_x31_">
	<rect x="-559.7" y="-93.5" class="st1" width="800" height="800"/>
	<circle class="st15" cx="20" cy="20" r="20"/>
	<g>
		<path class="st11" d="M10.7,10.3H14v15h7.3v2.7H10.7V10.3z"/>
		<path class="st11" d="M23.6,19.4c0-1.7,0-3-0.1-4.1h2.8l0.1,2.4h0.1c0.6-1.8,2.1-2.7,3.5-2.7c0.3,0,0.5,0,0.8,0.1v3.1
			c-0.3-0.1-0.6-0.1-0.9-0.1c-1.6,0-2.6,1-2.9,2.4c-0.1,0.3-0.1,0.6-0.1,1v6.6h-3.2V19.4z"/>
	</g>
</g>
<g id="Layer_1">
</g>
</svg>
