<?xml version="1.0" encoding="utf-8"?>
<!-- Generator: Adobe Illustrator 16.0.0, SVG Export Plug-In . SVG Version: 6.00 Build 0)  -->
<!DOCTYPE svg PUBLIC "-//W3C//DTD SVG 1.1//EN" "http://www.w3.org/Graphics/SVG/1.1/DTD/svg11.dtd">
<svg version="1.1" xmlns="http://www.w3.org/2000/svg" xmlns:xlink="http://www.w3.org/1999/xlink" x="0px" y="0px" width="59.1px"
	 height="59.1px" viewBox="0 0 59.1 59.1" style="enable-background:new 0 0 59.1 59.1;" xml:space="preserve">
<style type="text/css">
<![CDATA[
	.st0{fill:#AB47AC;}
	.st1{fill:#E13138;}
	.st2{fill:#13C1F3;}
	.st3{fill:#1465D2;}
	.st4{fill:#17A3EB;}
	.st5{display:none;fill:#FFFFFF;stroke:#000000;stroke-miterlimit:10;}
	.st6{fill:#1D74A6;}
	.st7{fill:#594721;}
	.st8{fill:#8DC2F8;}
	.st9{fill:#F16529;}
	.st10{fill:#2592C3;}
	.st11{fill:#C2DCE9;}
	.st12{fill:#FAA33D;}
	.st13{fill:#2DA8C7;}
	.st14{fill:#C94137;}
	.st15{fill:#2F3146;}
	.st16{fill:#FDDA3E;}
	.st17{fill:#6082BB;}
	.st18{fill:#FF7E30;}
	.st19{fill:#FFB650;}
	.st20{fill:#FFFFFF;}
	.st21{fill:#CB90FF;}
	.st22{fill:#33A9DC;}
	.st23{fill:#6A8A7B;}
	.st24{fill:#36A3D0;}
	.st25{fill:#393476;}
	.st26{fill:#393568;}
	.st27{fill-rule:evenodd;clip-rule:evenodd;fill:#FFFFFF;}
	.st28{fill:#D25685;}
	.st29{fill:#3D3D3D;}
	.st30{fill:#D97C2B;}
]]>
</style>
<g id="_x31_">
	<rect x="-693.3" y="-336.7" class="st5" width="800" height="800"/>
	<circle class="st17" cx="29.5" cy="29.6" r="29.6"/>
	<g>
		<path class="st20" d="M11.4,39.5l2.2-11.4c0.2-1.3,0.5-3,0.6-4.1h2.4l-0.2,1.8h0c1-1.3,2.3-2.1,3.7-2.1c2.4,0,3.5,1.9,3.5,4.1
			c0,3.8-2.7,7.4-6.4,7.4c-1,0-1.8-0.2-2.2-0.5h0L14,39.5H11.4z M15.3,32.7c0.4,0.3,1,0.5,1.8,0.5c2,0,3.7-2.7,3.7-5.2
			c0-1-0.5-2.2-1.7-2.2c-1.3,0-2.8,1.5-3.3,4.1L15.3,32.7z"/>
		<path class="st20" d="M24.7,35l3-16.1h2.6l-1.3,6.7h0c0.9-1.2,2.2-1.9,3.7-1.9c1.5,0,2.8,1,2.8,3c0,0.6-0.1,1.3-0.2,1.9L34.2,35
			h-2.6l1.2-6.2c0.1-0.4,0.1-0.9,0.1-1.4c0-0.8-0.4-1.5-1.4-1.5c-1.3,0-2.7,1.5-3.2,3.9l-1,5.3H24.7z"/>
		<path class="st20" d="M36.2,39.5l2.2-11.4c0.2-1.3,0.5-3,0.6-4.1h2.4l-0.2,1.8h0c1-1.3,2.3-2.1,3.7-2.1c2.4,0,3.5,1.9,3.5,4.1
			c0,3.8-2.7,7.4-6.4,7.4c-1,0-1.8-0.2-2.2-0.5h0l-0.9,4.7H36.2z M40.1,32.7c0.4,0.3,1,0.5,1.8,0.5c2,0,3.7-2.7,3.7-5.2
			c0-1-0.5-2.2-1.7-2.2c-1.3,0-2.8,1.5-3.3,4.1L40.1,32.7z"/>
	</g>
</g>
<g id="Layer_1">
</g>
</svg>
