<?xml version="1.0" encoding="utf-8"?>
<!-- Generator: Adobe Illustrator 16.0.0, SVG Export Plug-In . SVG Version: 6.00 Build 0)  -->
<!DOCTYPE svg PUBLIC "-//W3C//DTD SVG 1.1//EN" "http://www.w3.org/Graphics/SVG/1.1/DTD/svg11.dtd">
<svg version="1.1" xmlns="http://www.w3.org/2000/svg" xmlns:xlink="http://www.w3.org/1999/xlink" x="0px" y="0px" width="40px"
	 height="40px" viewBox="0 0 40 40" style="enable-background:new 0 0 40 40;" xml:space="preserve">
<style type="text/css">
<![CDATA[
	.st0{fill:#AB47AC;}
	.st1{fill:#FFFFFF;stroke:#000000;stroke-miterlimit:10;}
	.st2{fill:#E13138;}
	.st3{fill:#13C1F3;}
	.st4{fill:#1465D2;}
	.st5{fill:#17A3EB;}
	.st6{fill:#1D74A6;}
	.st7{fill:#5277C5;}
	.st8{fill:#2592C3;}
	.st9{fill:#FAA33D;}
	.st10{fill:#2DA8C7;}
	.st11{fill:#C94137;}
	.st12{fill:#FF7E30;}
	.st13{fill:#FFFFFF;}
	.st14{fill:#6A8A7B;}
	.st15{fill:#36A3D0;}
	.st16{fill-rule:evenodd;clip-rule:evenodd;fill:#FFFFFF;}
	.st17{fill:#D25685;}
	.st18{fill:#D97C2B;}
]]>
</style>
<g id="_x31_">
	<rect x="-185.5" y="-93.5" class="st1" width="800" height="800"/>
	<circle class="st15" cx="20" cy="20" r="20"/>
	<path class="st13" d="M33,12.1c-1,0.4-2,0.7-3,0.8c1.1-0.7,1.9-1.7,2.3-2.9c-1,0.6-2.2,1-3.4,1.3c-1-1-2.3-1.7-3.9-1.7
		c-2.9,0-5.3,2.4-5.3,5.3c0,0.4,0,0.8,0.1,1.2c-4.4-0.2-8.3-2.3-10.9-5.5c-0.5,0.8-0.7,1.7-0.7,2.6c0,1.8,0.9,3.4,2.4,4.4
		c-0.9,0-1.7-0.3-2.4-0.7c0,0,0,0,0,0.1c0,2.6,1.8,4.7,4.3,5.2c-0.4,0.1-0.9,0.2-1.4,0.2c-0.3,0-0.7,0-1-0.1c0.7,2.1,2.6,3.6,5,3.7
		c-1.8,1.4-4.1,2.3-6.6,2.3c-0.4,0-0.9,0-1.3-0.1c2.3,1.5,5.1,2.4,8.1,2.4c9.8,0,15.1-8,15.1-15c0-0.2,0-0.5,0-0.7
		C31.3,14,32.2,13.1,33,12.1L33,12.1z"/>
</g>
<g id="Layer_1">
</g>
</svg>
