<?xml version="1.0" encoding="utf-8"?>
<!-- Generator: Adobe Illustrator 16.0.0, SVG Export Plug-In . SVG Version: 6.00 Build 0)  -->
<!DOCTYPE svg PUBLIC "-//W3C//DTD SVG 1.1//EN" "http://www.w3.org/Graphics/SVG/1.1/DTD/svg11.dtd">
<svg version="1.1" xmlns="http://www.w3.org/2000/svg" xmlns:xlink="http://www.w3.org/1999/xlink" x="0px" y="0px" width="40px"
	 height="40px" viewBox="0 0 40 40" style="enable-background:new 0 0 40 40;" xml:space="preserve">
<style type="text/css">
<![CDATA[
	.st0{fill:#AB47AC;}
	.st1{fill:#FFFFFF;stroke:#000000;stroke-miterlimit:10;}
	.st2{fill:#E13138;}
	.st3{fill:#13C1F3;}
	.st4{fill:#1465D2;}
	.st5{fill:#17A3EB;}
	.st6{fill:#1D74A6;}
	.st7{fill:#5277C5;}
	.st8{fill:#2592C3;}
	.st9{fill:#FAA33D;}
	.st10{fill:#2DA8C7;}
	.st11{fill:#C94137;}
	.st12{fill:#FF7E30;}
	.st13{fill:#FFFFFF;}
	.st14{fill:#6A8A7B;}
	.st15{fill:#36A3D0;}
	.st16{fill-rule:evenodd;clip-rule:evenodd;fill:#FFFFFF;}
	.st17{fill:#D25685;}
	.st18{fill:#D97C2B;}
]]>
</style>
<g id="_x31_">
	<rect x="-237.5" y="-143.1" class="st1" width="800" height="800"/>
	<circle class="st11" cx="20" cy="20" r="20"/>
	<path class="st16" d="M32.3,20.1c0,3.4-0.6,6.8-1.8,7.7c-1.4,1-8,1-10.4,1c-2.5,0-8.8,0-10.2-0.8c-1.3-0.8-2-4.3-2.1-7.8
		c0,0,0,0,0,0v0c0.1-3.5,0.8-7.2,2.1-8c1.4-0.9,7.7-0.9,10.2-0.9c2.4,0,9.1,0,10.4,1C31.7,13.1,32.3,16.7,32.3,20.1L32.3,20.1
		L32.3,20.1C32.3,20.1,32.3,20.1,32.3,20.1L32.3,20.1L32.3,20.1z M17.7,15.4v9.3l7-4.7L17.7,15.4L17.7,15.4z"/>
</g>
<g id="Layer_1">
</g>
</svg>
