<?xml version="1.0" encoding="utf-8"?>
<!-- Generator: Adobe Illustrator 16.0.0, SVG Export Plug-In . SVG Version: 6.00 Build 0)  -->
<!DOCTYPE svg PUBLIC "-//W3C//DTD SVG 1.1//EN" "http://www.w3.org/Graphics/SVG/1.1/DTD/svg11.dtd">
<svg version="1.1" xmlns="http://www.w3.org/2000/svg" xmlns:xlink="http://www.w3.org/1999/xlink" x="0px" y="0px" width="131.3px"
	 height="80.2px" viewBox="0 0 131.3 80.2" style="enable-background:new 0 0 131.3 80.2;" xml:space="preserve">
<style type="text/css">
<![CDATA[
	.st0{display:inline;fill:#2D2D2D;}
	.st1{fill:#2D2D2D;}
	.st2{display:none;}
]]>
</style>
<g id="Layer_1" class="st2">
	<path class="st0" d="M131.3,7.8c0,4.3-3.3,7.8-7.3,7.8H44.6c-4,0-7.3-3.5-7.3-7.8l0,0c0-4.3,3.3-7.8,7.3-7.8H124
		C128.1,0,131.3,3.5,131.3,7.8L131.3,7.8z"/>
	<path class="st0" d="M131.3,38.5c0,4.1-3.3,7.3-7.3,7.3H7.3c-4.1,0-7.3-3.3-7.3-7.3l0,0c0-4.1,3.3-7.3,7.3-7.3H124
		C128.1,31.2,131.3,34.4,131.3,38.5L131.3,38.5z"/>
	<path class="st0" d="M131.3,69.2c0,4.1-3.4,7.5-7.5,7.5h-47c-4.1,0-7.5-3.4-7.5-7.5l0,0c0-4.1,3.4-7.5,7.5-7.5h47
		C128,61.7,131.3,65,131.3,69.2L131.3,69.2z"/>
</g>
<g id="Layer_2">
	<rect x="37.3" class="st1" width="94" height="15.7"/>
	<rect y="32.8" class="st1" width="131.3" height="15.7"/>
	<rect x="69.3" y="64.4" class="st1" width="62" height="15.7"/>
</g>
</svg>
